<svg xmlns="http://www.w3.org/2000/svg" enable-background="new 0 0 64 64" viewBox="0 0 64 64"><path fill="#123046" d="M48.81,23.01V10.43c0-1.2-0.64-2.32-1.68-2.93L32.99,0.24c-0.62-0.32-1.35-0.32-1.97,0L16.87,7.51
			c-1.04,0.61-1.68,1.72-1.68,2.93v12.57c0,1.87,1.52,3.39,3.39,3.39h26.83C47.29,26.4,48.81,24.88,48.81,23.01z"/><path fill="#5ab57a" d="M54.28,58.3V64H9.72v-5.7c0-5.32,4.3-9.62,9.61-9.62h25.33C49.98,48.68,54.28,52.98,54.28,58.3z"/><path fill="#3e9d75" d="M37.22,48.68c0,2.88-2.34,5.22-5.22,5.22c-2.88,0-5.22-2.33-5.22-5.22h-2.45c0,4.23,3.43,7.66,7.67,7.66
					c4.23,0,7.66-3.43,7.66-7.66H37.22z"/><path fill="#fff" d="M32,54.03L32,54.03c-2.94,0-5.32-2.38-5.32-5.32v-5.22h10.63v5.22C37.32,51.65,34.94,54.03,32,54.03z"/><ellipse cx="46.96" cy="26.4" fill="#fff" rx="3.41" ry="4"/><ellipse cx="17.04" cy="26.4" fill="#fff" rx="3.41" ry="4"/><path fill="#fff" d="M22.38,13.24c-2.95,0-5.33,2.39-5.33,5.33v11.24c0,8.39,6.86,15.45,15.25,15.29
								c8.13-0.15,14.67-6.79,14.67-14.96v-8.94v-4.2c-2.12-2.56-4.53-2.9-7.1-1.97c-0.55,0.2-1.06,0.47-1.57,0.74
								c-6.49,3.52-9.68,1.19-10.78-0.03c-0.52-0.58-1.1-1.11-1.76-1.52C24.67,13.57,23.56,13.15,22.38,13.24z"/><path fill="#872437" d="M38.03,33.58v0.19c0.01,2-0.97,3.78-2.47,4.87c-1,0.74-2.23,1.17-3.56,1.17c-1.33,0-2.56-0.43-3.56-1.16
							c-1.49-1.1-2.46-2.86-2.47-4.86v-0.21H38.03z"/><path fill="#e3344a" d="M35.56,38.65c-1,0.74-2.23,1.17-3.56,1.17c-1.33,0-2.56-0.43-3.56-1.16c0.65-1.3,2-2.2,3.56-2.2
							S34.9,37.35,35.56,38.65z"/></svg>